<?xml version="1.0" encoding="utf-8"?>
<svg xmlns="http://www.w3.org/2000/svg" height="512pt" version="1.1" viewBox="0 0 512 512" width="512pt">
<path d="M 0.00 0.00 L 512.00 0.00 L 512.00 512.00 L 0.00 512.00 L 0.00 0.00 M 301.66 35.47 C 300.89 40.65 301.83 45.86 302.31 51.01 C 302.08 55.50 300.10 59.80 297.43 63.37 C 294.28 67.60 289.16 69.42 284.76 71.98 C 281.55 73.73 278.78 76.12 276.02 78.49 C 272.15 77.00 268.24 75.25 264.02 75.19 C 259.77 74.84 255.71 76.35 251.71 77.55 C 250.58 74.65 252.40 71.26 250.38 68.59 C 248.67 64.83 244.00 63.82 240.28 64.45 C 236.55 65.50 234.00 68.62 230.84 70.66 C 229.24 70.90 227.32 71.11 225.90 70.21 C 223.93 67.43 222.92 63.98 220.35 61.64 C 217.33 58.47 212.77 56.86 208.44 57.50 C 205.99 58.21 202.85 60.03 203.20 63.01 C 203.11 66.60 206.58 69.74 205.38 73.30 C 201.40 75.44 196.64 73.58 192.35 74.43 C 186.56 74.74 181.86 78.36 176.51 80.07 C 174.76 74.67 168.74 73.35 164.42 70.70 C 159.04 67.45 153.39 63.55 151.11 57.41 C 147.28 50.53 151.54 42.83 150.44 35.53 C 148.76 35.53 147.07 35.39 145.41 35.67 C 141.83 37.17 139.84 40.76 138.18 44.06 C 134.33 51.72 132.69 60.50 134.25 68.99 C 134.60 77.75 138.80 85.95 144.76 92.23 C 148.03 95.73 152.57 97.53 156.62 99.93 C 155.02 102.66 153.33 105.33 151.60 107.98 C 145.20 107.07 139.23 104.42 132.91 103.20 C 110.66 98.49 87.60 95.94 64.96 99.03 C 62.98 98.93 62.57 100.99 61.76 102.34 C 58.26 113.45 59.35 126.21 66.22 135.83 C 73.69 145.78 86.06 150.56 98.05 152.14 C 109.55 153.24 121.62 152.04 132.06 146.79 C 132.74 146.83 134.10 146.91 134.79 146.96 C 133.87 154.20 131.59 161.19 130.23 168.36 C 125.64 189.25 123.22 210.64 123.28 232.04 C 114.80 244.87 113.70 262.04 120.24 275.91 C 126.83 290.22 139.45 300.92 153.28 307.94 C 154.07 309.47 155.08 311.05 154.76 312.87 C 154.12 320.86 153.90 328.91 154.64 336.90 C 155.30 343.14 158.58 348.74 159.33 354.95 C 160.07 367.30 160.18 379.68 161.22 392.01 C 161.48 399.69 161.40 407.40 162.29 415.05 C 162.61 427.50 163.41 439.93 164.09 452.36 C 155.02 452.96 145.95 453.90 137.02 455.63 C 134.64 456.19 131.67 456.46 130.52 459.00 C 138.15 462.47 146.75 462.35 154.91 463.51 C 158.08 463.68 161.60 464.95 164.46 462.99 L 164.48 463.37 C 173.77 463.26 183.03 464.22 192.31 464.28 C 188.54 464.90 184.75 465.32 180.93 465.42 C 210.24 466.95 239.61 467.66 268.97 467.48 C 290.30 467.36 311.67 467.71 333.01 466.90 C 343.58 466.66 354.18 466.67 364.72 465.64 C 364.67 465.40 364.56 464.91 364.50 464.66 C 376.13 464.31 387.78 463.83 399.37 462.73 C 403.84 463.58 408.32 462.35 412.75 461.73 C 416.11 461.04 419.93 460.78 422.44 458.13 C 415.55 454.65 407.68 454.09 400.12 453.35 L 400.11 452.47 C 400.58 441.65 400.48 430.82 401.15 420.02 C 401.39 406.33 401.34 392.64 402.10 378.97 C 402.83 365.33 401.99 351.64 403.14 338.03 C 403.50 328.71 403.34 319.31 401.33 310.16 C 411.38 311.16 422.34 311.15 431.05 305.31 C 440.41 299.99 444.63 288.34 443.03 278.01 C 441.35 265.78 434.03 255.54 427.66 245.34 C 432.18 241.03 432.78 233.63 429.63 228.36 C 426.43 222.72 420.38 219.47 414.48 217.31 C 410.16 216.02 405.31 214.16 400.89 215.96 C 398.98 217.28 400.21 219.44 401.03 221.02 C 404.60 227.35 402.03 235.23 405.67 241.55 C 408.90 248.39 418.18 251.40 424.73 247.48 C 430.22 257.01 435.66 266.91 437.52 277.88 C 438.75 285.34 436.80 293.66 430.87 298.69 C 422.95 305.18 412.03 305.93 402.27 304.65 C 400.61 304.59 399.60 303.38 399.16 301.89 C 395.08 290.56 387.95 279.80 377.36 273.64 C 361.68 263.83 342.42 262.98 324.48 264.22 C 325.29 259.90 325.40 255.48 324.57 251.16 C 326.17 246.46 328.55 242.01 329.34 237.06 C 331.53 225.48 329.92 213.66 329.17 202.01 C 327.58 185.55 325.39 169.07 321.01 153.09 C 320.74 151.25 319.51 148.79 321.54 147.50 C 326.69 149.97 332.32 151.35 337.96 152.12 C 351.10 153.51 365.09 151.63 376.39 144.41 C 384.90 139.29 390.82 130.08 391.98 120.22 C 392.99 114.77 391.81 109.31 391.19 103.91 C 390.54 98.46 384.28 98.32 380.05 97.96 C 354.82 96.48 329.60 100.61 305.21 106.66 C 302.81 104.27 300.39 101.41 299.10 98.23 C 306.28 93.88 312.74 87.72 315.64 79.66 C 319.12 69.51 319.39 58.21 315.80 48.05 C 313.26 43.33 310.77 37.94 305.66 35.51 C 304.48 34.89 302.55 33.88 301.66 35.47 Z" fill="transparent" opacity="1.00" stroke="transparent" stroke-width="0.25"/>
<path d="M 301.66 35.47 C 302.55 33.88 304.48 34.89 305.66 35.51 C 310.77 37.94 313.26 43.33 315.80 48.05 C 319.39 58.21 319.12 69.51 315.64 79.66 C 312.74 87.72 306.28 93.88 299.10 98.23 C 300.39 101.41 302.81 104.27 305.21 106.66 C 329.60 100.61 354.82 96.48 380.05 97.96 C 384.28 98.32 390.54 98.46 391.19 103.91 C 390.64 103.59 389.54 102.96 388.99 102.64 C 388.44 102.90 387.34 103.41 386.79 103.67 C 368.63 110.69 350.37 117.77 333.47 127.56 C 327.83 130.56 322.56 134.17 317.14 137.53 C 317.42 138.99 317.70 140.46 318.03 141.92 C 318.71 144.04 319.65 146.18 321.54 147.50 C 319.51 148.79 320.74 151.25 321.01 153.09 C 325.39 169.07 327.58 185.55 329.17 202.01 C 329.92 213.66 331.53 225.48 329.34 237.06 C 328.55 242.01 326.17 246.46 324.57 251.16 C 322.67 233.93 310.25 219.98 296.45 210.56 C 274.61 195.94 248.00 189.96 221.99 189.58 C 210.71 189.35 199.50 190.91 188.40 192.70 C 167.67 197.13 147.16 205.82 131.97 220.99 C 128.54 224.22 125.75 228.04 123.28 232.04 C 123.22 210.64 125.64 189.25 130.23 168.36 C 131.59 161.19 133.87 154.20 134.79 146.96 C 134.10 146.91 132.74 146.83 132.06 146.79 C 133.63 145.97 135.15 144.98 136.19 143.51 C 136.64 141.91 137.06 140.29 137.49 138.69 C 117.18 125.16 94.86 115.00 72.10 106.38 C 68.69 104.93 65.24 103.61 61.76 102.34 C 62.57 100.99 62.98 98.93 64.96 99.03 C 87.60 95.94 110.66 98.49 132.91 103.20 C 139.23 104.42 145.20 107.07 151.60 107.98 C 153.33 105.33 155.02 102.66 156.62 99.93 C 152.57 97.53 148.03 95.73 144.76 92.23 C 138.80 85.95 134.60 77.75 134.25 68.99 C 132.69 60.50 134.33 51.72 138.18 44.06 C 139.84 40.76 141.83 37.17 145.41 35.67 C 147.07 35.39 148.76 35.53 150.44 35.53 C 151.54 42.83 147.28 50.53 151.11 57.41 C 153.39 63.55 159.04 67.45 164.42 70.70 C 168.74 73.35 174.76 74.67 176.51 80.07 C 181.86 78.36 186.56 74.74 192.35 74.43 C 196.64 73.58 201.40 75.44 205.38 73.30 C 206.58 69.74 203.11 66.60 203.20 63.01 C 202.85 60.03 205.99 58.21 208.44 57.50 C 212.77 56.86 217.33 58.47 220.35 61.64 C 222.92 63.98 223.93 67.43 225.90 70.21 C 227.32 71.11 229.24 70.90 230.84 70.66 C 234.00 68.62 236.55 65.50 240.28 64.45 C 244.00 63.82 248.67 64.83 250.38 68.59 C 252.40 71.26 250.58 74.65 251.71 77.55 C 255.71 76.35 259.77 74.84 264.02 75.19 C 268.24 75.25 272.15 77.00 276.02 78.49 C 278.78 76.12 281.55 73.73 284.76 71.98 C 289.16 69.42 294.28 67.60 297.43 63.37 C 300.10 59.80 302.08 55.50 302.31 51.01 C 301.83 45.86 300.89 40.65 301.66 35.47 M 174.52 139.67 C 170.37 141.05 167.61 145.55 168.49 149.89 C 169.14 155.45 175.93 158.90 180.92 156.66 C 186.22 154.91 188.19 147.41 184.90 143.04 C 182.78 139.69 178.18 138.57 174.52 139.67 M 264.44 139.68 C 261.50 140.96 258.82 143.64 258.57 146.99 C 257.65 151.69 261.30 156.40 265.92 157.18 C 271.39 158.43 277.30 153.67 276.69 147.97 C 276.91 141.87 270.04 137.49 264.44 139.68 Z" fill="#ece5dc" opacity="1.00" stroke="#ece5dc" stroke-width="0.25"/>
<path d="M 66.22 135.83 C 59.35 126.21 58.26 113.45 61.76 102.34 C 65.24 103.61 68.69 104.93 72.10 106.38 C 74.91 110.57 80.21 111.87 84.11 114.82 C 100.63 125.84 118.48 134.61 136.19 143.51 C 135.15 144.98 133.63 145.97 132.06 146.79 C 121.62 152.04 109.55 153.24 98.05 152.14 C 86.06 150.56 73.69 145.78 66.22 135.83 Z" fill="#fe9781" opacity="1.00" stroke="#fe9781" stroke-width="0.25"/>
<path d="M 386.79 103.67 C 387.34 103.41 388.44 102.90 388.99 102.64 C 389.54 102.96 390.64 103.59 391.19 103.91 C 391.81 109.31 392.99 114.77 391.98 120.22 C 390.82 130.08 384.90 139.29 376.39 144.41 C 365.09 151.63 351.10 153.51 337.96 152.12 C 332.32 151.35 326.69 149.97 321.54 147.50 C 319.65 146.18 318.71 144.04 318.03 141.92 C 323.85 140.30 328.98 137.05 334.32 134.35 C 352.45 125.22 368.74 112.94 386.79 103.67 Z" fill="#fe9781" opacity="1.00" stroke="#fe9781" stroke-width="0.25"/>
<path d="M 333.47 127.56 C 350.37 117.77 368.63 110.69 386.79 103.67 C 368.74 112.94 352.45 125.22 334.32 134.35 C 328.98 137.05 323.85 140.30 318.03 141.92 C 317.70 140.46 317.42 138.99 317.14 137.53 C 322.56 134.17 327.83 130.56 333.47 127.56 Z" fill="#be8476" opacity="1.00" stroke="#be8476" stroke-width="0.25"/>
<path d="M 84.11 114.82 C 80.21 111.87 74.91 110.57 72.10 106.38 C 94.86 115.00 117.18 125.16 137.49 138.69 C 137.06 140.29 136.64 141.91 136.19 143.51 C 118.48 134.61 100.63 125.84 84.11 114.82 Z" fill="#be8476" opacity="1.00" stroke="#be8476" stroke-width="0.25"/>
<path d="M 174.52 139.67 C 178.18 138.57 182.78 139.69 184.90 143.04 C 188.19 147.41 186.22 154.91 180.92 156.66 C 175.93 158.90 169.14 155.45 168.49 149.89 C 167.61 145.55 170.37 141.05 174.52 139.67 Z" fill="#3c4145" opacity="1.00" stroke="#3c4145" stroke-width="0.25"/>
<path d="M 264.44 139.68 C 270.04 137.49 276.91 141.87 276.69 147.97 C 277.30 153.67 271.39 158.43 265.92 157.18 C 261.30 156.40 257.65 151.69 258.57 146.99 C 258.82 143.64 261.50 140.96 264.44 139.68 Z" fill="#3c4145" opacity="1.00" stroke="#3c4145" stroke-width="0.25"/>
<path d="M 188.40 192.70 C 199.50 190.91 210.71 189.35 221.99 189.58 C 248.00 189.96 274.61 195.94 296.45 210.56 C 310.25 219.98 322.67 233.93 324.57 251.16 C 325.40 255.48 325.29 259.90 324.48 264.22 C 322.10 280.22 310.27 292.40 298.18 302.11 C 277.04 317.40 250.64 322.88 225.05 324.43 C 202.92 324.88 180.53 321.00 160.28 311.92 C 157.84 310.79 155.60 309.28 153.28 307.94 C 139.45 300.92 126.83 290.22 120.24 275.91 C 113.70 262.04 114.80 244.87 123.28 232.04 C 125.75 228.04 128.54 224.22 131.97 220.99 C 147.16 205.82 167.67 197.13 188.40 192.70 M 169.61 219.58 C 169.67 221.36 168.79 223.48 170.17 224.95 C 171.45 226.64 173.04 228.08 174.50 229.61 C 176.24 229.40 178.66 230.31 179.48 228.18 C 180.07 225.01 177.47 222.55 175.48 220.48 C 174.01 218.74 171.56 219.62 169.61 219.58 M 273.21 220.03 C 270.36 221.91 267.98 224.65 267.32 228.08 C 267.75 228.67 268.62 229.84 269.05 230.43 C 274.12 230.53 278.79 225.55 277.82 220.41 C 276.32 220.25 274.61 218.92 273.21 220.03 M 185.25 272.10 C 186.50 276.26 189.59 279.48 192.04 282.97 C 195.95 288.22 202.10 291.18 208.35 292.62 C 223.09 296.36 239.34 293.31 251.88 284.77 C 255.45 281.98 259.39 279.11 261.24 274.83 C 259.91 275.11 258.75 275.79 257.88 276.83 C 247.85 287.70 232.50 292.63 217.95 291.79 C 209.06 291.19 199.21 288.98 193.47 281.54 C 190.50 278.59 189.30 273.83 185.25 272.10 Z" fill="#fe9781" opacity="1.00" stroke="#fe9781" stroke-width="0.25"/>
<path d="M 400.89 215.96 C 405.31 214.16 410.16 216.02 414.48 217.31 C 420.38 219.47 426.43 222.72 429.63 228.36 C 432.78 233.63 432.18 241.03 427.66 245.34 C 426.73 246.11 425.74 246.82 424.73 247.48 C 418.18 251.40 408.90 248.39 405.67 241.55 C 402.03 235.23 404.60 227.35 401.03 221.02 C 400.21 219.44 398.98 217.28 400.89 215.96 Z" fill="#3c4145" opacity="1.00" stroke="#3c4145" stroke-width="0.25"/>
<path d="M 169.61 219.58 C 171.56 219.62 174.01 218.74 175.48 220.48 C 177.47 222.55 180.07 225.01 179.48 228.18 C 178.66 230.31 176.24 229.40 174.50 229.61 C 173.04 228.08 171.45 226.64 170.17 224.95 C 168.79 223.48 169.67 221.36 169.61 219.58 Z" fill="#3c4145" opacity="1.00" stroke="#3c4145" stroke-width="0.25"/>
<path d="M 273.21 220.03 C 274.61 218.92 276.32 220.25 277.82 220.41 C 278.79 225.55 274.12 230.53 269.05 230.43 C 268.62 229.84 267.75 228.67 267.32 228.08 C 267.98 224.65 270.36 221.91 273.21 220.03 Z" fill="#3c4145" opacity="1.00" stroke="#3c4145" stroke-width="0.25"/>
<path d="M 424.73 247.48 C 425.74 246.82 426.73 246.11 427.66 245.34 C 434.03 255.54 441.35 265.78 443.03 278.01 C 444.63 288.34 440.41 299.99 431.05 305.31 C 422.34 311.15 411.38 311.16 401.33 310.16 C 403.34 319.31 403.50 328.71 403.14 338.03 C 401.99 351.64 402.83 365.33 402.10 378.97 C 401.34 392.64 401.39 406.33 401.15 420.02 C 400.48 430.82 400.58 441.65 400.11 452.47 C 387.45 452.59 374.81 453.56 362.15 453.72 C 362.89 457.37 363.73 461.01 364.50 464.66 C 364.56 464.91 364.67 465.40 364.72 465.64 C 354.18 466.67 343.58 466.66 333.01 466.90 C 311.67 467.71 290.30 467.36 268.97 467.48 C 239.61 467.66 210.24 466.95 180.93 465.42 C 184.75 465.32 188.54 464.90 192.31 464.28 C 197.69 464.16 203.06 464.57 208.43 464.56 C 208.50 460.54 208.53 456.53 208.53 452.52 C 193.72 452.49 178.90 452.44 164.09 452.36 C 163.41 439.93 162.61 427.50 162.29 415.05 C 161.40 407.40 161.48 399.69 161.22 392.01 C 160.18 379.68 160.07 367.30 159.33 354.95 C 158.58 348.74 155.30 343.14 154.64 336.90 C 153.90 328.91 154.12 320.86 154.76 312.87 C 155.08 311.05 154.07 309.47 153.28 307.94 C 155.60 309.28 157.84 310.79 160.28 311.92 C 180.53 321.00 202.92 324.88 225.05 324.43 C 250.64 322.88 277.04 317.40 298.18 302.11 C 310.27 292.40 322.10 280.22 324.48 264.22 C 342.42 262.98 361.68 263.83 377.36 273.64 C 387.95 279.80 395.08 290.56 399.16 301.89 C 399.60 303.38 400.61 304.59 402.27 304.65 C 412.03 305.93 422.95 305.18 430.87 298.69 C 436.80 293.66 438.75 285.34 437.52 277.88 C 435.66 266.91 430.22 257.01 424.73 247.48 M 290.78 390.91 C 289.38 411.09 288.35 431.30 287.97 451.54 C 288.47 449.69 288.93 447.84 289.12 445.94 C 290.34 433.40 291.58 420.87 292.74 408.34 C 303.46 407.70 314.32 407.47 324.83 405.06 C 320.75 419.60 320.60 434.88 318.23 449.74 C 332.51 449.67 346.76 450.61 361.04 450.78 C 357.86 434.98 352.42 419.76 348.56 404.13 C 347.99 402.79 347.96 400.15 345.92 400.40 L 346.89 400.18 C 346.35 398.57 345.81 396.95 345.29 395.33 C 337.49 398.30 329.12 399.24 320.95 400.71 C 311.83 402.34 302.59 402.93 293.36 403.51 C 293.60 388.79 293.95 374.06 293.67 359.34 C 292.11 369.79 292.12 380.42 290.78 390.91 M 209.87 399.85 C 208.68 410.86 209.60 421.96 208.94 432.99 C 208.65 438.70 208.58 444.43 208.88 450.14 C 215.23 450.48 221.58 449.92 227.93 449.82 C 232.80 449.62 237.70 449.99 242.52 449.19 C 239.46 435.81 238.87 421.92 235.87 408.58 C 232.12 406.96 228.13 406.05 224.27 404.73 C 219.42 403.26 214.85 400.94 209.87 399.85 M 288.67 451.96 C 287.22 452.64 285.64 452.85 284.06 452.75 C 270.24 452.45 256.42 452.10 242.60 451.74 C 243.34 455.90 243.71 460.11 244.41 464.27 C 258.75 464.54 273.06 465.46 287.40 465.65 C 287.40 464.88 287.39 463.34 287.39 462.57 C 297.12 462.61 306.85 462.63 316.58 462.53 C 317.28 458.92 317.65 455.26 317.85 451.59 C 308.13 451.69 298.40 451.81 288.67 451.96 Z" fill="#ece5dc" opacity="1.00" stroke="#ece5dc" stroke-width="0.25"/>
<path d="M 185.25 272.10 C 189.30 273.83 190.50 278.59 193.47 281.54 C 199.21 288.98 209.06 291.19 217.95 291.79 C 232.50 292.63 247.85 287.70 257.88 276.83 C 258.75 275.79 259.91 275.11 261.24 274.83 C 259.39 279.11 255.45 281.98 251.88 284.77 C 239.34 293.31 223.09 296.36 208.35 292.62 C 202.10 291.18 195.95 288.22 192.04 282.97 C 189.59 279.48 186.50 276.26 185.25 272.10 Z" fill="#3c4145" opacity="1.00" stroke="#3c4145" stroke-width="0.25"/>
<path d="M 290.78 390.91 C 292.12 380.42 292.11 369.79 293.67 359.34 C 293.95 374.06 293.60 388.79 293.36 403.51 C 302.59 402.93 311.83 402.34 320.95 400.71 C 329.12 399.24 337.49 398.30 345.29 395.33 C 345.81 396.95 346.35 398.57 346.89 400.18 L 345.92 400.40 C 338.91 402.06 331.95 403.90 324.83 405.06 C 314.32 407.47 303.46 407.70 292.74 408.34 C 291.58 420.87 290.34 433.40 289.12 445.94 C 288.93 447.84 288.47 449.69 287.97 451.54 C 288.35 431.30 289.38 411.09 290.78 390.91 Z" fill="#be8476" opacity="1.00" stroke="#be8476" stroke-width="0.25"/>
<path d="M 209.87 399.85 C 214.85 400.94 219.42 403.26 224.27 404.73 C 228.13 406.05 232.12 406.96 235.87 408.58 C 238.87 421.92 239.46 435.81 242.52 449.19 C 237.70 449.99 232.80 449.62 227.93 449.82 C 221.58 449.92 215.23 450.48 208.88 450.14 C 208.58 444.43 208.65 438.70 208.94 432.99 C 209.60 421.96 208.68 410.86 209.87 399.85 Z" fill="#ffffff" opacity="1.00" stroke="#ffffff" stroke-width="0.25"/>
<path d="M 324.83 405.06 C 331.95 403.90 338.91 402.06 345.92 400.40 C 347.96 400.15 347.99 402.79 348.56 404.13 C 352.42 419.76 357.86 434.98 361.04 450.78 C 346.76 450.61 332.51 449.67 318.23 449.74 C 320.60 434.88 320.75 419.60 324.83 405.06 Z" fill="#ffffff" opacity="1.00" stroke="#ffffff" stroke-width="0.25"/>
<path d="M 288.67 451.96 C 298.40 451.81 308.13 451.69 317.85 451.59 C 317.65 455.26 317.28 458.92 316.58 462.53 C 306.85 462.63 297.12 462.61 287.39 462.57 C 287.39 463.34 287.40 464.88 287.40 465.65 C 273.06 465.46 258.75 464.54 244.41 464.27 C 243.71 460.11 243.34 455.90 242.60 451.74 C 256.42 452.10 270.24 452.45 284.06 452.75 C 285.64 452.85 287.22 452.64 288.67 451.96 Z" fill="#3c4145" opacity="1.00" stroke="#3c4145" stroke-width="0.25"/>
<path d="M 137.02 455.63 C 145.95 453.90 155.02 452.96 164.09 452.36 C 164.23 455.90 164.32 459.44 164.46 462.99 C 161.60 464.95 158.08 463.68 154.91 463.51 C 146.75 462.35 138.15 462.47 130.52 459.00 C 131.67 456.46 134.64 456.19 137.02 455.63 Z" fill="#ece5dc" opacity="1.00" stroke="#ece5dc" stroke-width="0.25"/>
<path d="M 164.09 452.36 C 178.90 452.44 193.72 452.49 208.53 452.52 C 208.53 456.53 208.50 460.54 208.43 464.56 C 203.06 464.57 197.69 464.16 192.31 464.28 C 183.03 464.22 173.77 463.26 164.48 463.37 L 164.46 462.99 C 164.32 459.44 164.23 455.90 164.09 452.36 Z" fill="#3c4145" opacity="1.00" stroke="#3c4145" stroke-width="0.25"/>
<path d="M 362.15 453.72 C 374.81 453.56 387.45 452.59 400.11 452.47 L 400.12 453.35 C 400.19 456.49 399.90 459.63 399.37 462.73 C 387.78 463.83 376.13 464.31 364.50 464.66 C 363.73 461.01 362.89 457.37 362.15 453.72 Z" fill="#3c4145" opacity="1.00" stroke="#3c4145" stroke-width="0.25"/>
<path d="M 400.12 453.35 C 407.68 454.09 415.55 454.65 422.44 458.13 C 419.93 460.78 416.11 461.04 412.75 461.73 C 408.32 462.35 403.84 463.58 399.37 462.73 C 399.90 459.63 400.19 456.49 400.12 453.35 Z" fill="#ece5dc" opacity="1.00" stroke="#ece5dc" stroke-width="0.25"/>
</svg>