<?xml version="1.0" encoding="utf-8"?>
<svg xmlns="http://www.w3.org/2000/svg" height="512pt" version="1.1" viewBox="0 0 512 512" width="512pt">
<path d="M 0.00 0.00 L 512.00 0.00 L 512.00 512.00 L 0.00 512.00 L 0.00 0.00 M 160.54 149.47 C 152.47 147.86 146.98 155.13 138.99 153.06 C 132.23 150.84 130.64 159.06 128.26 163.18 C 126.36 168.34 117.78 164.27 116.02 170.04 C 110.84 173.85 115.09 180.84 110.81 184.90 C 106.01 189.66 107.61 197.54 101.47 201.43 C 95.52 206.04 87.75 216.91 95.79 223.19 C 97.80 226.25 101.76 225.19 104.80 225.11 C 108.60 231.69 99.48 238.03 102.84 245.00 C 102.73 247.25 100.44 251.65 104.19 251.80 C 106.86 259.40 114.77 263.19 122.22 264.76 C 122.46 265.29 122.92 266.33 123.16 266.86 C 129.56 265.27 136.22 266.07 142.74 266.07 C 143.42 270.19 143.41 274.73 145.70 278.29 C 147.30 280.65 152.15 281.25 150.75 284.86 C 147.51 295.89 153.50 308.29 163.81 313.15 C 163.68 319.96 164.88 327.99 171.73 331.40 C 168.72 334.70 162.11 333.41 157.97 335.96 C 155.10 336.81 154.54 341.96 151.14 340.75 C 140.75 337.98 127.00 341.19 123.81 352.80 C 117.44 356.26 108.19 360.98 110.01 369.90 C 114.35 380.66 124.59 388.57 136.61 387.41 C 143.98 395.22 154.84 397.36 164.99 399.03 C 172.85 400.99 181.44 393.61 187.62 401.39 C 204.03 409.45 223.23 407.25 241.00 406.90 C 256.56 405.90 272.56 401.60 285.08 392.00 C 309.05 397.90 333.54 404.95 358.60 401.45 C 375.82 398.60 394.79 395.85 407.33 382.32 C 423.59 367.69 407.48 340.96 389.02 337.96 C 389.04 335.97 389.06 333.98 388.93 332.00 C 389.14 328.37 388.82 324.70 389.01 321.08 C 397.75 316.36 390.97 302.75 399.80 298.81 C 404.45 294.31 411.71 300.76 416.67 296.65 C 427.10 291.62 423.96 276.57 413.20 274.78 C 407.48 268.55 415.81 261.74 416.10 255.04 C 418.81 243.00 413.50 231.25 405.10 222.94 C 406.56 213.33 407.11 201.15 397.83 195.13 C 393.73 190.74 383.94 194.17 383.43 186.66 C 380.65 173.62 366.02 165.40 353.28 168.65 C 344.64 163.40 335.97 155.99 324.89 160.88 C 317.60 164.87 310.31 160.39 302.92 159.22 C 297.58 159.90 292.10 160.64 287.36 163.38 C 285.21 165.18 282.76 168.64 279.68 166.32 C 269.76 158.99 255.47 161.64 246.93 170.01 C 237.84 165.89 227.87 167.05 218.34 168.76 C 214.97 161.25 204.34 164.60 201.98 156.97 C 197.68 151.06 189.65 152.98 183.78 152.19 C 178.28 144.79 167.72 144.18 160.54 149.47 Z" fill="transparent" opacity="1.00" stroke="transparent" stroke-width="0.25"/>
<path d="M 160.54 149.47 C 167.72 144.18 178.28 144.79 183.78 152.19 C 189.65 152.98 197.68 151.06 201.98 156.97 C 204.34 164.60 214.97 161.25 218.34 168.76 C 227.87 167.05 237.84 165.89 246.93 170.01 C 255.47 161.64 269.76 158.99 279.68 166.32 C 282.76 168.64 285.21 165.18 287.36 163.38 C 292.10 160.64 297.58 159.90 302.92 159.22 C 310.31 160.39 317.60 164.87 324.89 160.88 C 335.97 155.99 344.64 163.40 353.28 168.65 C 366.02 165.40 380.65 173.62 383.43 186.66 C 383.94 194.17 393.73 190.74 397.83 195.13 C 407.11 201.15 406.56 213.33 405.10 222.94 C 413.50 231.25 418.81 243.00 416.10 255.04 C 415.81 261.74 407.48 268.55 413.20 274.78 C 423.96 276.57 427.10 291.62 416.67 296.65 C 411.71 300.76 404.45 294.31 399.80 298.81 C 390.97 302.75 397.75 316.36 389.01 321.08 C 391.06 314.61 393.80 308.14 392.37 301.19 C 396.77 299.01 401.16 293.67 406.29 294.70 C 414.23 300.12 424.27 289.81 420.09 281.95 C 417.97 277.33 410.33 278.89 409.80 273.14 C 406.51 265.75 414.57 260.62 414.46 253.42 C 417.48 241.80 410.08 231.33 402.30 223.77 C 404.11 215.34 405.50 205.81 398.99 199.01 C 394.92 194.42 388.38 194.23 383.13 191.87 C 380.66 185.37 379.01 177.19 372.07 173.91 C 364.37 166.93 352.21 174.13 345.31 165.68 C 337.16 159.06 325.77 161.94 317.01 165.75 C 307.68 160.75 295.10 158.82 286.68 166.62 C 282.55 171.64 277.24 166.69 272.72 165.24 C 263.41 161.14 254.23 166.97 246.96 171.99 C 237.98 167.68 227.93 167.19 219.06 172.03 C 215.00 166.96 209.20 164.86 203.43 162.57 C 200.07 155.23 191.45 152.85 184.11 154.77 C 178.52 147.57 168.89 145.83 161.25 151.08 C 153.02 150.70 146.41 157.65 138.02 155.07 C 130.35 154.75 132.79 167.16 125.59 167.54 C 117.63 167.03 114.40 175.18 114.75 181.87 C 112.48 187.21 108.16 191.83 108.02 198.00 C 100.48 203.93 92.71 212.99 95.79 223.19 C 87.75 216.91 95.52 206.04 101.47 201.43 C 107.61 197.54 106.01 189.66 110.81 184.90 C 115.09 180.84 110.84 173.85 116.02 170.04 C 117.78 164.27 126.36 168.34 128.26 163.18 C 130.64 159.06 132.23 150.84 138.99 153.06 C 146.98 155.13 152.47 147.86 160.54 149.47 Z" fill="#fdfaf3" opacity="1.00" stroke="#fdfaf3" stroke-width="0.25"/>
<path d="M 161.25 151.08 C 168.89 145.83 178.52 147.57 184.11 154.77 C 191.45 152.85 200.07 155.23 203.43 162.57 C 209.20 164.86 215.00 166.96 219.06 172.03 C 227.93 167.19 237.98 167.68 246.96 171.99 C 254.23 166.97 263.41 161.14 272.72 165.24 C 277.24 166.69 282.55 171.64 286.68 166.62 C 295.10 158.82 307.68 160.75 317.01 165.75 C 325.77 161.94 337.16 159.06 345.31 165.68 C 352.21 174.13 364.37 166.93 372.07 173.91 C 379.01 177.19 380.66 185.37 383.13 191.87 C 388.38 194.23 394.92 194.42 398.99 199.01 C 405.50 205.81 404.11 215.34 402.30 223.77 C 410.08 231.33 417.48 241.80 414.46 253.42 C 414.57 260.62 406.51 265.75 409.80 273.14 C 410.33 278.89 417.97 277.33 420.09 281.95 C 424.27 289.81 414.23 300.12 406.29 294.70 C 401.16 293.67 396.77 299.01 392.37 301.19 C 393.80 308.14 391.06 314.61 389.01 321.08 C 388.82 324.70 389.14 328.37 388.93 332.00 L 387.99 332.00 C 387.95 328.29 387.96 324.62 387.91 320.92 C 388.53 313.62 392.17 306.66 390.16 299.20 C 393.67 296.84 397.71 295.41 401.50 293.57 C 406.34 291.36 413.32 296.83 416.80 291.79 C 420.08 288.60 419.78 282.55 414.87 281.20 C 406.92 278.98 404.84 268.43 409.12 262.12 C 415.89 251.48 413.65 237.13 404.25 228.77 C 394.54 222.80 407.92 210.49 399.08 203.91 C 395.51 193.77 379.12 198.74 379.40 186.44 C 375.40 178.27 367.59 169.60 357.36 172.43 C 348.95 174.84 344.60 164.94 337.19 163.71 C 328.48 160.59 319.95 170.35 311.50 165.65 C 303.06 161.46 292.49 162.94 285.96 169.95 C 281.65 174.93 276.65 167.65 272.01 166.99 C 264.58 164.07 256.65 166.85 251.48 172.45 C 245.01 177.32 238.18 168.22 231.08 170.04 C 224.81 171.52 215.54 177.72 212.61 168.39 C 206.74 166.88 200.77 165.10 197.73 159.30 C 193.61 153.41 183.63 160.88 179.94 154.04 C 177.75 151.26 173.66 147.63 169.91 149.89 C 162.11 154.39 152.87 153.56 144.81 157.39 C 136.51 153.86 132.49 161.46 130.88 167.89 C 126.50 169.38 120.01 168.80 118.51 174.42 C 116.47 182.93 112.96 190.79 108.02 198.00 C 108.16 191.83 112.48 187.21 114.75 181.87 C 114.40 175.18 117.63 167.03 125.59 167.54 C 132.79 167.16 130.35 154.75 138.02 155.07 C 146.41 157.65 153.02 150.70 161.25 151.08 Z" fill="#fbf5e9" opacity="1.00" stroke="#fbf5e9" stroke-width="0.25"/>
<path d="M 169.91 149.89 C 173.66 147.63 177.75 151.26 179.94 154.04 C 183.63 160.88 193.61 153.41 197.73 159.30 C 200.77 165.10 206.74 166.88 212.61 168.39 C 215.54 177.72 224.81 171.52 231.08 170.04 C 238.18 168.22 245.01 177.32 251.48 172.45 C 256.65 166.85 264.58 164.07 272.01 166.99 C 276.65 167.65 281.65 174.93 285.96 169.95 C 292.49 162.94 303.06 161.46 311.50 165.65 C 319.95 170.35 328.48 160.59 337.19 163.71 C 344.60 164.94 348.95 174.84 357.36 172.43 C 367.59 169.60 375.40 178.27 379.40 186.44 C 379.12 198.74 395.51 193.77 399.08 203.91 C 407.92 210.49 394.54 222.80 404.25 228.77 C 413.65 237.13 415.89 251.48 409.12 262.12 C 404.84 268.43 406.92 278.98 414.87 281.20 C 419.78 282.55 420.08 288.60 416.80 291.79 C 413.32 296.83 406.34 291.36 401.50 293.57 C 397.71 295.41 393.67 296.84 390.16 299.20 C 392.17 306.66 388.53 313.62 387.91 320.92 C 385.01 324.03 378.67 323.31 377.71 327.73 C 377.42 328.72 377.17 329.73 376.94 330.75 C 373.68 329.10 371.97 333.08 369.73 334.70 C 366.36 337.92 360.04 336.22 357.30 340.33 C 356.93 344.27 356.78 348.26 356.44 352.22 C 356.36 351.68 356.20 350.62 356.12 350.09 C 354.43 346.01 359.90 335.60 351.19 337.55 C 348.74 337.52 344.26 334.26 344.83 338.72 C 344.57 338.99 344.06 339.54 343.80 339.81 C 338.06 340.24 335.38 347.78 328.99 346.03 C 320.47 348.08 312.63 343.05 304.65 342.65 C 295.74 352.03 280.68 358.46 268.95 350.10 C 265.65 347.13 261.47 346.43 257.70 348.69 C 250.22 350.99 241.74 350.91 234.60 347.48 C 231.37 345.50 231.05 349.98 229.96 352.02 L 229.06 352.02 C 228.79 348.68 229.74 345.03 228.01 341.98 C 224.85 344.60 221.56 347.03 218.20 349.38 C 217.98 354.58 217.91 359.78 218.00 364.99 L 217.02 365.01 C 216.09 359.69 219.17 352.52 214.70 348.27 C 209.61 346.70 204.24 347.63 199.19 348.92 C 198.91 348.68 198.33 348.18 198.05 347.94 C 194.55 344.96 190.37 342.67 187.73 338.80 C 188.27 336.90 187.31 337.13 186.04 337.93 C 185.91 336.51 185.74 335.10 185.41 333.73 C 185.23 330.79 182.44 328.23 179.01 329.94 C 171.42 330.93 164.90 323.34 166.14 315.95 C 166.43 307.23 152.73 306.19 152.93 297.05 C 150.75 291.66 153.46 285.90 152.62 280.48 C 145.71 278.14 144.78 270.12 145.89 263.89 C 157.84 260.72 169.49 256.31 180.33 250.33 C 186.43 246.89 184.74 238.64 187.93 233.13 C 184.07 230.31 181.21 225.52 183.75 220.70 C 187.13 215.60 178.03 211.93 181.42 206.39 C 183.56 203.16 184.41 199.05 182.71 195.43 C 178.88 196.29 176.56 194.00 174.37 191.61 C 169.57 189.20 164.13 194.71 159.42 193.02 C 157.64 191.44 156.06 193.81 154.42 194.45 C 149.98 197.45 147.57 190.87 143.68 191.93 C 139.16 194.43 135.64 192.80 134.44 188.27 C 129.93 189.97 123.97 187.70 120.41 190.30 C 121.10 202.58 115.22 213.96 109.35 224.34 C 108.60 224.28 107.11 224.16 106.36 224.09 C 105.46 218.33 100.25 210.10 107.48 206.59 C 111.87 205.54 108.59 200.78 108.02 198.00 C 112.96 190.79 116.47 182.93 118.51 174.42 C 120.01 168.80 126.50 169.38 130.88 167.89 C 132.49 161.46 136.51 153.86 144.81 157.39 C 152.87 153.56 162.11 154.39 169.91 149.89 M 208.27 190.94 C 208.61 194.76 205.76 197.72 202.16 198.46 C 202.31 201.99 201.09 206.37 203.54 209.42 C 209.04 217.93 212.67 229.11 222.97 233.03 C 228.21 236.09 238.39 232.61 236.00 225.00 C 235.78 208.92 221.55 197.34 208.27 190.94 M 338.98 224.01 C 336.09 229.66 344.56 238.31 349.02 233.35 C 346.53 232.69 343.86 231.97 342.24 229.80 C 339.91 228.21 342.74 222.98 338.98 224.01 M 280.10 227.75 C 277.25 235.88 287.14 236.52 291.87 233.81 C 292.92 230.05 288.40 233.05 286.87 233.90 C 282.93 235.04 281.97 230.10 280.10 227.75 M 287.01 260.81 C 284.96 266.51 290.68 272.17 296.17 271.98 C 291.97 269.05 288.76 265.50 287.01 260.81 M 215.98 262.02 C 213.27 269.54 223.57 277.72 229.14 271.13 C 225.73 270.58 221.41 272.16 219.20 268.81 C 216.48 267.17 220.24 260.87 215.98 262.02 M 347.98 298.97 C 345.84 306.67 354.90 308.40 360.22 307.02 C 357.85 304.58 352.94 306.35 350.76 303.29 C 349.32 301.96 351.02 298.18 347.98 298.97 M 266.93 305.02 C 262.87 313.17 276.70 321.38 280.19 313.14 C 273.94 317.79 266.20 310.82 266.93 305.02 M 189.94 308.93 C 189.53 314.38 197.04 321.22 201.24 315.32 C 194.62 317.77 194.18 310.21 189.94 308.93 Z" fill="#fbf1e0" opacity="1.00" stroke="#fbf1e0" stroke-width="0.25"/>
<path d="M 120.41 190.30 C 123.97 187.70 129.93 189.97 134.44 188.27 C 135.64 192.80 139.16 194.43 143.68 191.93 C 146.09 198.77 156.40 199.59 159.42 193.02 C 164.13 194.71 169.57 189.20 174.37 191.61 C 176.56 194.00 178.88 196.29 182.71 195.43 C 184.41 199.05 183.56 203.16 181.42 206.39 C 178.03 211.93 187.13 215.60 183.75 220.70 C 181.21 225.52 184.07 230.31 187.93 233.13 C 184.74 238.64 186.43 246.89 180.33 250.33 C 169.49 256.31 157.84 260.72 145.89 263.89 C 138.05 264.89 130.11 265.32 122.22 264.76 C 114.77 263.19 106.86 259.40 104.19 251.80 C 101.93 242.02 105.96 233.17 109.35 224.34 C 115.22 213.96 121.10 202.58 120.41 190.30 M 168.22 199.04 C 164.22 204.72 172.19 197.71 174.71 201.28 C 179.55 202.42 169.48 195.43 168.22 199.04 M 126.25 201.11 C 120.72 207.12 129.73 199.70 132.43 203.46 C 137.65 204.55 128.47 196.78 126.25 201.11 M 169.21 207.11 C 167.09 209.52 168.14 214.30 171.75 213.82 C 175.85 211.82 174.09 205.02 169.21 207.11 M 126.21 209.11 C 123.68 211.93 125.76 216.98 129.77 215.90 C 133.56 213.14 130.45 207.18 126.21 209.11 M 122.75 240.13 C 128.40 245.11 122.08 258.25 132.16 257.07 C 127.24 255.76 127.27 250.73 127.09 246.33 C 130.21 245.94 133.64 245.04 135.12 241.94 C 130.71 244.37 126.21 244.50 122.75 240.13 Z" fill="#f28b72" opacity="1.00" stroke="#f28b72" stroke-width="0.25"/>
<path d="M 143.68 191.93 C 147.57 190.87 149.98 197.45 154.42 194.45 C 156.06 193.81 157.64 191.44 159.42 193.02 C 156.40 199.59 146.09 198.77 143.68 191.93 Z" fill="#c77c67" opacity="1.00" stroke="#c77c67" stroke-width="0.25"/>
<path d="M 208.27 190.94 C 221.55 197.34 235.78 208.92 236.00 225.00 C 238.39 232.61 228.21 236.09 222.97 233.03 C 212.67 229.11 209.04 217.93 203.54 209.42 C 201.09 206.37 202.31 201.99 202.16 198.46 C 205.76 197.72 208.61 194.76 208.27 190.94 Z" fill="#f28d74" opacity="1.00" stroke="#f28d74" stroke-width="0.25"/>
<path d="M 95.79 223.19 C 92.71 212.99 100.48 203.93 108.02 198.00 C 108.59 200.78 111.87 205.54 107.48 206.59 C 100.25 210.10 105.46 218.33 106.36 224.09 C 102.81 223.95 99.27 223.90 95.79 223.19 Z" fill="#ed927d" opacity="1.00" stroke="#ed927d" stroke-width="0.25"/>
<path d="M 168.22 199.04 C 169.48 195.43 179.55 202.42 174.71 201.28 C 172.19 197.71 164.22 204.72 168.22 199.04 Z" fill="#ad5f4c" opacity="1.00" stroke="#ad5f4c" stroke-width="0.25"/>
<path d="M 126.25 201.11 C 128.47 196.78 137.65 204.55 132.43 203.46 C 129.73 199.70 120.72 207.12 126.25 201.11 Z" fill="#ac5f48" opacity="1.00" stroke="#ac5f48" stroke-width="0.25"/>
<path d="M 169.21 207.11 C 174.09 205.02 175.85 211.82 171.75 213.82 C 168.14 214.30 167.09 209.52 169.21 207.11 Z" fill="#5b4744" opacity="1.00" stroke="#5b4744" stroke-width="0.25"/>
<path d="M 126.21 209.11 C 130.45 207.18 133.56 213.14 129.77 215.90 C 125.76 216.98 123.68 211.93 126.21 209.11 Z" fill="#644d49" opacity="1.00" stroke="#644d49" stroke-width="0.25"/>
<path d="M 95.79 223.19 C 99.27 223.90 102.81 223.95 106.36 224.09 C 107.11 224.16 108.60 224.28 109.35 224.34 C 105.96 233.17 101.93 242.02 104.19 251.80 C 100.44 251.65 102.73 247.25 102.84 245.00 C 99.48 238.03 108.60 231.69 104.80 225.11 C 101.76 225.19 97.80 226.25 95.79 223.19 Z" fill="#fff3ec" opacity="1.00" stroke="#fff3ec" stroke-width="0.25"/>
<path d="M 338.98 224.01 C 342.74 222.98 339.91 228.21 342.24 229.80 C 343.86 231.97 346.53 232.69 349.02 233.35 C 344.56 238.31 336.09 229.66 338.98 224.01 Z" fill="#d3cab9" opacity="1.00" stroke="#d3cab9" stroke-width="0.25"/>
<path d="M 280.10 227.75 C 281.97 230.10 282.93 235.04 286.87 233.90 C 288.40 233.05 292.92 230.05 291.87 233.81 C 287.14 236.52 277.25 235.88 280.10 227.75 Z" fill="#d0c7b6" opacity="1.00" stroke="#d0c7b6" stroke-width="0.25"/>
<path d="M 122.75 240.13 C 126.21 244.50 130.71 244.37 135.12 241.94 C 133.64 245.04 130.21 245.94 127.09 246.33 C 127.27 250.73 127.24 255.76 132.16 257.07 C 122.08 258.25 128.40 245.11 122.75 240.13 Z" fill="#945543" opacity="1.00" stroke="#945543" stroke-width="0.25"/>
<path d="M 287.01 260.81 C 288.76 265.50 291.97 269.05 296.17 271.98 C 290.68 272.17 284.96 266.51 287.01 260.81 Z" fill="#d0c8b6" opacity="1.00" stroke="#d0c8b6" stroke-width="0.25"/>
<path d="M 215.98 262.02 C 220.24 260.87 216.48 267.17 219.20 268.81 C 221.41 272.16 225.73 270.58 229.14 271.13 C 223.57 277.72 213.27 269.54 215.98 262.02 Z" fill="#d7cebd" opacity="1.00" stroke="#d7cebd" stroke-width="0.25"/>
<path d="M 122.22 264.76 C 130.11 265.32 138.05 264.89 145.89 263.89 C 144.78 270.12 145.71 278.14 152.62 280.48 C 153.46 285.90 150.75 291.66 152.93 297.05 C 152.73 306.19 166.43 307.23 166.14 315.95 C 164.90 323.34 171.42 330.93 179.01 329.94 C 182.44 328.23 185.23 330.79 185.41 333.73 C 176.12 338.82 161.73 330.80 155.06 342.13 C 148.05 343.64 139.52 340.11 132.63 344.60 C 127.04 346.61 127.95 354.47 122.02 356.04 C 116.95 358.86 110.20 362.87 112.03 369.91 C 116.26 379.56 125.91 386.03 136.68 385.42 C 148.84 396.01 166.34 399.63 181.70 395.39 C 194.57 406.18 212.36 404.58 228.00 405.07 C 247.54 405.98 268.05 401.53 284.23 390.23 C 290.82 389.51 297.12 392.71 303.26 394.64 C 333.07 401.46 365.57 403.20 393.81 389.77 C 400.19 385.85 406.88 381.34 410.63 374.67 C 415.46 360.04 403.98 343.07 388.98 341.02 C 388.99 340.25 389.01 338.72 389.02 337.96 C 407.48 340.96 423.59 367.69 407.33 382.32 C 394.79 395.85 375.82 398.60 358.60 401.45 C 333.54 404.95 309.05 397.90 285.08 392.00 C 272.56 401.60 256.56 405.90 241.00 406.90 C 223.23 407.25 204.03 409.45 187.62 401.39 C 181.44 393.61 172.85 400.99 164.99 399.03 C 154.84 397.36 143.98 395.22 136.61 387.41 C 124.59 388.57 114.35 380.66 110.01 369.90 C 108.19 360.98 117.44 356.26 123.81 352.80 C 127.00 341.19 140.75 337.98 151.14 340.75 C 154.54 341.96 155.10 336.81 157.97 335.96 C 162.11 333.41 168.72 334.70 171.73 331.40 C 164.88 327.99 163.68 319.96 163.81 313.15 C 153.50 308.29 147.51 295.89 150.75 284.86 C 152.15 281.25 147.30 280.65 145.70 278.29 C 143.41 274.73 143.42 270.19 142.74 266.07 C 136.22 266.07 129.56 265.27 123.16 266.86 C 122.92 266.33 122.46 265.29 122.22 264.76 Z" fill="#f8f7f5" opacity="1.00" stroke="#f8f7f5" stroke-width="0.25"/>
<path d="M 347.98 298.97 C 351.02 298.18 349.32 301.96 350.76 303.29 C 352.94 306.35 357.85 304.58 360.22 307.02 C 354.90 308.40 345.84 306.67 347.98 298.97 Z" fill="#d6cdbc" opacity="1.00" stroke="#d6cdbc" stroke-width="0.25"/>
<path d="M 266.93 305.02 C 266.20 310.82 273.94 317.79 280.19 313.14 C 276.70 321.38 262.87 313.17 266.93 305.02 Z" fill="#dbd3c2" opacity="1.00" stroke="#dbd3c2" stroke-width="0.25"/>
<path d="M 189.94 308.93 C 194.18 310.21 194.62 317.77 201.24 315.32 C 197.04 321.22 189.53 314.38 189.94 308.93 Z" fill="#d1c8b7" opacity="1.00" stroke="#d1c8b7" stroke-width="0.25"/>
<path d="M 377.71 327.73 C 378.67 323.31 385.01 324.03 387.91 320.92 C 387.96 324.62 387.95 328.29 387.99 332.00 C 387.97 343.67 388.05 355.35 387.93 367.03 C 384.27 366.99 380.67 367.00 377.03 367.00 C 376.99 361.91 376.93 356.85 376.83 351.78 C 376.95 350.59 377.08 349.41 377.21 348.23 C 378.15 341.43 378.21 334.55 377.71 327.73 Z" fill="#ef8972" opacity="1.00" stroke="#ef8972" stroke-width="0.25"/>
<path d="M 376.94 330.75 C 377.17 329.73 377.42 328.72 377.71 327.73 C 378.21 334.55 378.15 341.43 377.21 348.23 C 377.13 342.39 376.99 336.57 376.94 330.75 Z" fill="#edb6a9" opacity="1.00" stroke="#edb6a9" stroke-width="0.25"/>
<path d="M 369.73 334.70 C 371.97 333.08 373.68 329.10 376.94 330.75 C 376.99 336.57 377.13 342.39 377.21 348.23 C 377.08 349.41 376.95 350.59 376.83 351.78 C 376.12 356.82 375.95 361.94 376.02 367.03 C 376.22 369.59 373.90 372.97 376.24 374.90 C 378.76 375.89 380.44 373.78 382.00 372.18 C 384.04 376.34 390.60 375.71 388.86 370.28 C 389.02 360.52 388.97 350.77 388.98 341.02 C 403.98 343.07 415.46 360.04 410.63 374.67 C 406.88 381.34 400.19 385.85 393.81 389.77 C 365.57 403.20 333.07 401.46 303.26 394.64 C 297.12 392.71 290.82 389.51 284.23 390.23 C 268.05 401.53 247.54 405.98 228.00 405.07 C 212.36 404.58 194.57 406.18 181.70 395.39 C 166.34 399.63 148.84 396.01 136.68 385.42 C 125.91 386.03 116.26 379.56 112.03 369.91 C 110.20 362.87 116.95 358.86 122.02 356.04 C 127.95 354.47 127.04 346.61 132.63 344.60 C 139.52 340.11 148.05 343.64 155.06 342.13 C 161.73 330.80 176.12 338.82 185.41 333.73 C 185.74 335.10 185.91 336.51 186.04 337.93 C 186.06 343.03 185.96 348.17 186.32 353.29 C 186.12 356.08 185.97 358.95 185.78 361.78 C 185.37 365.57 185.11 369.38 184.97 373.21 C 184.83 375.22 185.13 377.26 186.02 379.10 C 186.46 381.01 189.23 380.54 189.80 378.94 C 191.40 375.32 193.61 380.16 196.02 380.03 C 200.25 380.58 198.81 375.08 198.94 372.23 C 198.99 364.45 198.97 356.69 199.19 348.92 C 204.24 347.63 209.61 346.70 214.70 348.27 C 219.17 352.52 216.09 359.69 217.02 365.01 C 216.93 371.40 217.03 377.81 217.23 384.22 C 217.20 384.67 217.13 385.59 217.10 386.04 L 216.98 387.01 C 217.00 389.22 215.05 392.16 217.17 393.83 C 219.67 397.55 223.20 389.20 225.21 393.94 C 225.78 395.52 228.57 396.02 228.98 394.09 C 229.68 392.58 229.96 390.93 229.90 389.27 C 230.09 376.85 229.98 364.44 229.96 352.02 C 231.05 349.98 231.37 345.50 234.60 347.48 C 241.74 350.91 250.22 350.99 257.70 348.69 C 261.47 346.43 265.65 347.13 268.95 350.10 C 280.68 358.46 295.74 352.03 304.65 342.65 C 312.63 343.05 320.47 348.08 328.99 346.03 C 335.38 347.78 338.06 340.24 343.80 339.81 C 343.88 343.60 344.08 347.43 344.10 351.24 C 343.21 354.01 342.18 358.23 346.08 358.98 C 348.77 358.21 351.40 357.44 354.06 358.84 C 358.14 359.74 356.66 354.57 356.44 352.22 C 356.78 348.26 356.93 344.27 357.30 340.33 C 360.04 336.22 366.36 337.92 369.73 334.70 Z" fill="#f0f0ef" opacity="1.00" stroke="#f0f0ef" stroke-width="0.25"/>
<path d="M 387.99 332.00 L 388.93 332.00 C 389.06 333.98 389.04 335.97 389.02 337.96 C 389.01 338.72 388.99 340.25 388.98 341.02 C 388.97 350.77 389.02 360.52 388.86 370.28 C 388.53 369.19 388.22 368.11 387.93 367.03 C 388.05 355.35 387.97 343.67 387.99 332.00 Z" fill="#edc4b8" opacity="1.00" stroke="#edc4b8" stroke-width="0.25"/>
<path d="M 344.83 338.72 C 344.26 334.26 348.74 337.52 351.19 337.55 C 359.90 335.60 354.43 346.01 356.12 350.09 C 352.42 350.01 348.76 349.99 345.07 349.92 C 345.03 346.17 344.97 342.46 344.83 338.72 Z" fill="#c07363" opacity="1.00" stroke="#c07363" stroke-width="0.25"/>
<path d="M 186.04 337.93 C 187.31 337.13 188.27 336.90 187.73 338.80 C 187.20 343.61 187.27 348.52 186.32 353.29 C 185.96 348.17 186.06 343.03 186.04 337.93 Z" fill="#ddaba2" opacity="1.00" stroke="#ddaba2" stroke-width="0.25"/>
<path d="M 186.32 353.29 C 187.27 348.52 187.20 343.61 187.73 338.80 C 190.37 342.67 194.55 344.96 198.05 347.94 C 198.06 355.57 197.97 363.21 197.95 370.86 C 194.01 371.20 190.08 371.65 186.14 372.03 C 186.04 368.58 185.91 365.20 185.78 361.78 C 185.97 358.95 186.12 356.08 186.32 353.29 Z" fill="#c1715e" opacity="1.00" stroke="#c1715e" stroke-width="0.25"/>
<path d="M 343.80 339.81 C 344.06 339.54 344.57 338.99 344.83 338.72 C 344.97 342.46 345.03 346.17 345.07 349.92 C 344.83 350.25 344.34 350.91 344.10 351.24 C 344.08 347.43 343.88 343.60 343.80 339.81 Z" fill="#e2b9b2" opacity="1.00" stroke="#e2b9b2" stroke-width="0.25"/>
<path d="M 218.20 349.38 C 221.56 347.03 224.85 344.60 228.01 341.98 C 229.74 345.03 228.79 348.68 229.06 352.02 C 228.94 363.35 229.05 374.68 228.94 386.01 C 224.99 386.01 221.04 386.02 217.10 386.04 C 217.13 385.59 217.20 384.67 217.23 384.22 C 217.97 377.83 218.11 371.40 218.00 364.99 C 217.91 359.78 217.98 354.58 218.20 349.38 Z" fill="#ef8a73" opacity="1.00" stroke="#ef8a73" stroke-width="0.25"/>
<path d="M 198.05 347.94 C 198.33 348.18 198.91 348.68 199.19 348.92 C 198.97 356.69 198.99 364.45 198.94 372.23 C 198.69 371.89 198.20 371.20 197.95 370.86 C 197.97 363.21 198.06 355.57 198.05 347.94 Z" fill="#debbb3" opacity="1.00" stroke="#debbb3" stroke-width="0.25"/>
<path d="M 345.07 349.92 C 348.76 349.99 352.42 350.01 356.12 350.09 C 356.20 350.62 356.36 351.68 356.44 352.22 C 356.66 354.57 358.14 359.74 354.06 358.84 C 351.40 357.44 348.77 358.21 346.08 358.98 C 342.18 358.23 343.21 354.01 344.10 351.24 C 344.34 350.91 344.83 350.25 345.07 349.92 Z" fill="#495054" opacity="1.00" stroke="#495054" stroke-width="0.25"/>
<path d="M 229.06 352.02 L 229.96 352.02 C 229.98 364.44 230.09 376.85 229.90 389.27 C 229.67 388.70 229.21 387.55 228.98 386.98 L 228.94 386.01 C 229.05 374.68 228.94 363.35 229.06 352.02 Z" fill="#f7cbbe" opacity="1.00" stroke="#f7cbbe" stroke-width="0.25"/>
<path d="M 376.02 367.03 C 375.95 361.94 376.12 356.82 376.83 351.78 C 376.93 356.85 376.99 361.91 377.03 367.00 L 376.02 367.03 Z" fill="#f7c1b5" opacity="1.00" stroke="#f7c1b5" stroke-width="0.25"/>
<path d="M 184.97 373.21 C 185.11 369.38 185.37 365.57 185.78 361.78 C 185.91 365.20 186.04 368.58 186.14 372.03 C 185.85 372.32 185.27 372.91 184.97 373.21 Z" fill="#dbbeb8" opacity="1.00" stroke="#dbbeb8" stroke-width="0.25"/>
<path d="M 217.02 365.01 L 218.00 364.99 C 218.11 371.40 217.97 377.83 217.23 384.22 C 217.03 377.81 216.93 371.40 217.02 365.01 Z" fill="#ecb7ab" opacity="1.00" stroke="#ecb7ab" stroke-width="0.25"/>
<path d="M 376.02 367.03 L 377.03 367.00 C 380.67 367.00 384.27 366.99 387.93 367.03 C 388.22 368.11 388.53 369.19 388.86 370.28 C 390.60 375.71 384.04 376.34 382.00 372.18 C 380.44 373.78 378.76 375.89 376.24 374.90 C 373.90 372.97 376.22 369.59 376.02 367.03 Z" fill="#4d5155" opacity="1.00" stroke="#4d5155" stroke-width="0.25"/>
<path d="M 186.14 372.03 C 190.08 371.65 194.01 371.20 197.95 370.86 C 198.20 371.20 198.69 371.89 198.94 372.23 C 198.81 375.08 200.25 380.58 196.02 380.03 C 193.61 380.16 191.40 375.32 189.80 378.94 C 188.53 378.79 187.27 378.84 186.02 379.10 C 185.13 377.26 184.83 375.22 184.97 373.21 C 185.27 372.91 185.85 372.32 186.14 372.03 Z" fill="#484e54" opacity="1.00" stroke="#484e54" stroke-width="0.25"/>
<path d="M 186.02 379.10 C 187.27 378.84 188.53 378.79 189.80 378.94 C 189.23 380.54 186.46 381.01 186.02 379.10 Z" fill="#94a0a1" opacity="1.00" stroke="#94a0a1" stroke-width="0.25"/>
<path d="M 217.10 386.04 C 221.04 386.02 224.99 386.01 228.94 386.01 L 228.98 386.98 C 224.98 386.97 220.98 386.98 216.98 387.01 L 217.10 386.04 Z" fill="#936c67" opacity="1.00" stroke="#936c67" stroke-width="0.25"/>
<path d="M 216.98 387.01 C 220.98 386.98 224.98 386.97 228.98 386.98 C 229.21 387.55 229.67 388.70 229.90 389.27 C 229.96 390.93 229.68 392.58 228.98 394.09 C 227.73 393.84 226.47 393.79 225.21 393.94 C 223.20 389.20 219.67 397.55 217.17 393.83 C 215.05 392.16 217.00 389.22 216.98 387.01 Z" fill="#454e53" opacity="1.00" stroke="#454e53" stroke-width="0.25"/>
<path d="M 225.21 393.94 C 226.47 393.79 227.73 393.84 228.98 394.09 C 228.57 396.02 225.78 395.52 225.21 393.94 Z" fill="#969fa2" opacity="1.00" stroke="#969fa2" stroke-width="0.25"/>
</svg>