<?xml version="1.0" encoding="utf-8"?>
<svg xmlns="http://www.w3.org/2000/svg" height="512pt" version="1.1" viewBox="0 0 512 512" width="512pt">
<path d="M 0.00 0.00 L 512.00 0.00 L 512.00 512.00 L 0.00 512.00 L 0.00 0.00 M 268.55 42.38 C 257.68 46.15 248.55 53.57 237.88 57.80 C 227.23 62.59 215.61 64.39 204.11 65.77 C 191.13 67.59 177.27 71.19 168.27 81.40 C 161.09 88.79 157.97 99.51 159.69 109.63 C 159.54 109.69 159.23 109.81 159.08 109.87 C 157.36 108.06 155.49 106.38 153.45 104.94 C 151.37 102.15 148.70 99.72 147.38 96.43 C 144.70 89.80 145.08 81.91 148.93 75.81 C 145.49 77.22 143.66 80.76 141.87 83.80 C 138.49 89.76 138.46 97.29 141.61 103.35 C 143.67 105.82 146.20 107.83 148.95 109.48 L 149.39 109.24 C 151.62 110.02 153.89 110.88 156.30 110.90 C 153.92 111.70 151.36 111.70 148.93 112.28 C 140.15 114.24 132.59 120.63 129.13 128.94 C 124.60 139.57 126.02 151.58 128.72 162.48 C 133.20 179.43 141.20 195.26 150.53 210.03 C 147.51 216.99 146.12 225.26 149.58 232.35 C 153.82 243.03 167.01 247.84 177.63 244.71 C 182.24 249.22 186.53 254.13 191.64 258.10 C 200.09 268.53 211.44 276.25 223.83 281.28 C 224.06 284.12 224.04 286.98 223.79 289.83 C 222.27 290.02 220.76 290.21 219.25 290.41 L 219.35 291.30 C 205.58 293.54 191.81 300.22 183.98 312.17 C 177.44 322.38 172.05 333.27 166.45 344.01 C 166.90 344.39 167.81 345.17 168.26 345.56 C 168.87 346.75 169.48 347.95 170.09 349.16 C 164.16 366.45 156.99 383.29 151.94 400.89 C 145.18 422.18 139.68 443.90 136.00 465.95 C 135.79 467.58 135.79 469.23 135.76 470.88 C 147.24 470.70 158.74 471.32 170.21 470.50 C 177.04 442.17 185.50 414.25 195.56 386.90 C 197.27 383.11 197.30 378.27 200.76 375.51 C 201.18 383.73 201.71 391.96 201.46 400.23 C 200.98 406.77 200.51 413.32 199.83 419.85 C 198.56 427.07 198.30 434.44 196.81 441.63 C 195.44 451.41 193.03 461.00 191.43 470.73 C 234.26 470.92 277.10 470.74 319.93 470.82 C 319.49 466.11 319.87 461.27 318.65 456.67 C 319.06 447.94 317.40 439.24 317.16 430.50 C 316.07 423.62 317.30 416.59 315.91 409.75 C 315.90 408.40 315.89 407.07 315.88 405.74 C 315.83 405.13 315.75 403.91 315.71 403.30 C 316.14 393.89 314.95 384.41 316.42 375.05 C 319.47 382.15 321.24 389.71 324.19 396.86 C 332.43 420.76 338.26 445.47 341.69 470.51 C 354.01 471.16 366.39 471.05 378.72 470.88 C 378.37 459.52 376.35 448.28 374.32 437.13 C 371.76 425.98 368.75 414.94 366.02 403.84 C 361.99 391.44 357.58 379.17 353.26 366.86 C 350.98 358.58 347.16 350.87 344.07 342.89 C 343.38 341.30 343.42 339.55 343.43 337.86 C 344.45 337.02 345.53 336.24 346.60 335.46 C 346.59 334.89 346.57 333.75 346.57 333.19 C 342.47 326.66 338.62 319.97 334.18 313.68 C 326.39 303.17 314.17 296.38 301.36 294.29 C 297.59 292.57 293.40 292.46 289.38 291.79 C 289.08 290.31 288.79 288.83 288.50 287.36 C 299.82 285.20 311.00 281.88 321.09 276.21 C 331.80 269.61 341.89 261.13 347.93 249.89 C 352.62 242.15 353.77 232.86 354.19 223.98 C 353.60 209.26 351.64 194.64 349.86 180.02 C 352.18 171.08 354.21 162.02 354.79 152.78 C 363.21 143.53 368.69 129.54 363.48 117.40 C 360.18 108.98 352.01 102.99 343.05 102.02 C 346.08 94.39 352.31 87.66 351.84 78.95 C 352.33 69.74 345.56 60.20 336.07 59.25 C 327.87 57.87 320.67 62.78 312.92 64.30 C 309.16 64.92 304.54 65.32 301.63 62.34 C 299.45 59.27 299.11 55.29 297.06 52.12 C 291.66 42.36 278.76 38.80 268.55 42.38 Z" fill="transparent" opacity="1.00" stroke="transparent" stroke-width="0.25"/>
<path d="M 268.55 42.38 C 278.76 38.80 291.66 42.36 297.06 52.12 C 299.11 55.29 299.45 59.27 301.63 62.34 C 304.54 65.32 309.16 64.92 312.92 64.30 C 320.67 62.78 327.87 57.87 336.07 59.25 C 345.56 60.20 352.33 69.74 351.84 78.95 C 352.31 87.66 346.08 94.39 343.05 102.02 C 352.01 102.99 360.18 108.98 363.48 117.40 C 368.69 129.54 363.21 143.53 354.79 152.78 C 354.21 162.02 352.18 171.08 349.86 180.02 C 348.46 169.82 347.14 159.60 345.46 149.44 C 338.02 148.19 330.40 146.82 323.80 142.96 C 316.32 138.90 311.03 131.99 304.10 127.17 C 306.37 132.94 307.75 139.59 305.31 145.54 C 302.69 151.15 295.67 152.82 290.00 152.18 C 279.41 150.96 270.94 143.59 264.08 135.96 C 259.18 144.76 248.52 148.14 238.97 147.86 C 229.69 148.00 220.57 145.08 212.86 139.97 C 216.82 146.35 221.22 153.89 218.38 161.62 C 216.95 167.23 212.21 170.67 207.61 173.59 C 206.74 176.65 210.34 179.00 210.96 181.93 C 212.99 189.36 209.35 197.07 204.68 202.72 C 201.41 206.83 196.74 209.49 191.73 210.89 C 188.77 206.34 184.91 202.16 179.73 200.20 C 171.47 196.56 161.64 198.83 154.93 204.58 C 147.52 191.23 141.26 177.07 138.29 162.03 C 136.87 155.47 137.31 148.72 137.59 142.07 C 139.92 134.20 144.92 127.33 151.90 122.95 C 144.17 126.72 138.70 134.25 136.88 142.60 C 134.75 156.54 138.97 170.39 144.07 183.21 C 146.81 190.82 150.78 197.87 154.58 204.98 C 153.16 206.60 151.74 208.23 150.53 210.03 C 141.20 195.26 133.20 179.43 128.72 162.48 C 126.02 151.58 124.60 139.57 129.13 128.94 C 132.59 120.63 140.15 114.24 148.93 112.28 C 151.36 111.70 153.92 111.70 156.30 110.90 C 157.23 110.59 158.16 110.25 159.08 109.87 C 159.23 109.81 159.54 109.69 159.69 109.63 C 157.97 99.51 161.09 88.79 168.27 81.40 C 177.27 71.19 191.13 67.59 204.11 65.77 C 215.61 64.39 227.23 62.59 237.88 57.80 C 248.55 53.57 257.68 46.15 268.55 42.38 M 271.47 52.67 C 265.03 54.39 259.63 58.50 254.23 62.24 C 245.42 67.96 235.34 72.15 224.75 72.72 C 213.79 74.03 202.40 72.11 191.77 75.86 C 186.73 76.02 183.71 80.72 179.21 82.41 L 178.69 82.84 C 178.58 83.30 178.34 84.22 178.23 84.68 C 175.22 87.69 174.40 91.92 173.52 95.92 C 174.38 93.31 174.89 90.57 176.04 88.06 C 178.99 83.86 182.46 80.00 187.21 77.83 C 189.78 78.01 191.66 76.01 194.05 75.49 C 207.13 71.97 220.95 75.44 234.03 71.92 C 242.90 69.88 250.92 65.29 258.22 60.00 C 261.88 57.47 265.73 55.09 269.98 53.71 C 273.91 52.72 278.00 53.28 282.01 53.23 C 278.56 52.48 274.97 52.18 271.47 52.67 M 316.10 77.23 C 315.01 77.69 313.94 78.19 312.85 78.65 C 311.96 79.27 311.09 79.90 310.23 80.54 L 309.41 80.27 L 309.46 81.21 C 307.14 81.83 305.22 83.28 303.10 84.30 C 300.83 85.18 298.43 85.58 296.15 86.39 C 291.70 86.64 287.10 87.04 282.80 85.65 C 278.57 84.55 274.92 82.10 271.05 80.19 C 275.09 82.87 279.30 85.50 284.05 86.71 C 288.42 88.06 293.04 87.43 297.53 87.47 L 297.38 86.59 C 300.93 86.62 304.09 84.84 307.22 83.39 C 308.73 82.52 310.22 81.61 311.67 80.63 C 312.64 80.19 313.62 79.76 314.60 79.33 L 314.37 78.67 C 318.01 77.80 321.11 75.47 324.81 74.64 C 328.93 74.18 333.07 74.33 337.21 74.34 C 330.14 72.57 322.33 73.32 316.10 77.23 Z" fill="#34424a" opacity="1.00" stroke="#34424a" stroke-width="0.25"/>
<path d="M 271.47 52.67 C 274.97 52.18 278.56 52.48 282.01 53.23 C 278.00 53.28 273.91 52.72 269.98 53.71 C 265.73 55.09 261.88 57.47 258.22 60.00 C 250.92 65.29 242.90 69.88 234.03 71.92 C 220.95 75.44 207.13 71.97 194.05 75.49 C 191.66 76.01 189.78 78.01 187.21 77.83 C 182.46 80.00 178.99 83.86 176.04 88.06 C 174.89 90.57 174.38 93.31 173.52 95.92 C 174.40 91.92 175.22 87.69 178.23 84.68 C 178.34 84.22 178.58 83.30 178.69 82.84 L 179.21 82.41 C 183.71 80.72 186.73 76.02 191.77 75.86 C 202.40 72.11 213.79 74.03 224.75 72.72 C 235.34 72.15 245.42 67.96 254.23 62.24 C 259.63 58.50 265.03 54.39 271.47 52.67 Z" fill="#ffffff" opacity="1.00" stroke="#ffffff" stroke-width="0.25"/>
<path d="M 316.10 77.23 C 322.33 73.32 330.14 72.57 337.21 74.34 C 333.07 74.33 328.93 74.18 324.81 74.64 C 321.11 75.47 318.01 77.80 314.37 78.67 L 314.60 79.33 C 313.62 79.76 312.64 80.19 311.67 80.63 C 310.22 81.61 308.73 82.52 307.22 83.39 C 304.09 84.84 300.93 86.62 297.38 86.59 L 297.53 87.47 C 293.04 87.43 288.42 88.06 284.05 86.71 C 279.30 85.50 275.09 82.87 271.05 80.19 C 274.92 82.10 278.57 84.55 282.80 85.65 C 287.10 87.04 291.70 86.64 296.15 86.39 C 298.43 85.58 300.83 85.18 303.10 84.30 C 305.22 83.28 307.14 81.83 309.46 81.21 L 309.41 80.27 L 310.23 80.54 C 311.09 79.90 311.96 79.27 312.85 78.65 C 313.94 78.19 315.01 77.69 316.10 77.23 Z" fill="#ffffff" opacity="1.00" stroke="#ffffff" stroke-width="0.25"/>
<path d="M 141.87 83.80 C 143.66 80.76 145.49 77.22 148.93 75.81 C 145.08 81.91 144.70 89.80 147.38 96.43 C 148.70 99.72 151.37 102.15 153.45 104.94 C 153.93 106.29 154.36 107.66 154.81 109.03 C 153.64 108.73 152.47 108.43 151.30 108.19 C 150.82 108.45 149.86 108.97 149.39 109.24 L 148.95 109.48 C 146.20 107.83 143.67 105.82 141.61 103.35 C 138.46 97.29 138.49 89.76 141.87 83.80 Z" fill="#354249" opacity="1.00" stroke="#354249" stroke-width="0.25"/>
<path d="M 154.81 109.03 C 154.36 107.66 153.93 106.29 153.45 104.94 C 155.49 106.38 157.36 108.06 159.08 109.87 C 158.16 110.25 157.23 110.59 156.30 110.90 C 153.89 110.88 151.62 110.02 149.39 109.24 C 149.86 108.97 150.82 108.45 151.30 108.19 C 152.47 108.43 153.64 108.73 154.81 109.03 Z" fill="#2e383e" opacity="1.00" stroke="#2e383e" stroke-width="0.25"/>
<path d="M 136.88 142.60 C 138.70 134.25 144.17 126.72 151.90 122.95 C 144.92 127.33 139.92 134.20 137.59 142.07 C 137.31 148.72 136.87 155.47 138.29 162.03 C 141.26 177.07 147.52 191.23 154.93 204.58 C 154.84 204.68 154.67 204.88 154.58 204.98 C 150.78 197.87 146.81 190.82 144.07 183.21 C 138.97 170.39 134.75 156.54 136.88 142.60 Z" fill="#ffffff" opacity="1.00" stroke="#ffffff" stroke-width="0.25"/>
<path d="M 304.10 127.17 C 311.03 131.99 316.32 138.90 323.80 142.96 C 330.40 146.82 338.02 148.19 345.46 149.44 C 347.14 159.60 348.46 169.82 349.86 180.02 C 351.64 194.64 353.60 209.26 354.19 223.98 C 353.77 232.86 352.62 242.15 347.93 249.89 C 341.89 261.13 331.80 269.61 321.09 276.21 C 311.00 281.88 299.82 285.20 288.50 287.36 C 274.66 289.33 260.66 288.35 246.80 287.25 C 254.87 290.55 263.17 293.31 271.61 295.53 C 277.19 297.09 283.11 297.23 288.51 299.46 C 286.38 308.97 278.45 316.48 269.23 319.13 C 255.56 322.72 239.46 318.63 230.66 307.16 C 226.81 302.48 225.25 296.51 223.98 290.72 C 222.43 290.91 220.89 291.09 219.35 291.30 L 219.25 290.41 C 220.76 290.21 222.27 290.02 223.79 289.83 C 224.04 286.98 224.06 284.12 223.83 281.28 C 211.44 276.25 200.09 268.53 191.64 258.10 C 187.95 253.21 184.66 248.02 182.21 242.39 C 180.69 243.20 179.18 244.00 177.63 244.71 C 167.01 247.84 153.82 243.03 149.58 232.35 C 146.12 225.26 147.51 216.99 150.53 210.03 C 151.74 208.23 153.16 206.60 154.58 204.98 C 154.67 204.88 154.84 204.68 154.93 204.58 C 161.64 198.83 171.47 196.56 179.73 200.20 C 184.91 202.16 188.77 206.34 191.73 210.89 C 196.74 209.49 201.41 206.83 204.68 202.72 C 209.35 197.07 212.99 189.36 210.96 181.93 C 210.34 179.00 206.74 176.65 207.61 173.59 C 212.21 170.67 216.95 167.23 218.38 161.62 C 221.22 153.89 216.82 146.35 212.86 139.97 C 220.57 145.08 229.69 148.00 238.97 147.86 C 248.52 148.14 259.18 144.76 264.08 135.96 C 270.94 143.59 279.41 150.96 290.00 152.18 C 295.67 152.82 302.69 151.15 305.31 145.54 C 307.75 139.59 306.37 132.94 304.10 127.17 M 317.83 153.03 C 315.92 154.35 313.63 156.50 314.64 159.03 C 316.78 160.58 319.53 159.17 321.93 159.26 C 326.90 158.57 331.67 160.35 336.42 161.47 C 335.68 153.17 324.61 148.44 317.83 153.03 M 233.42 169.55 C 238.60 167.75 243.44 164.75 249.03 164.32 C 252.00 163.87 255.28 164.71 258.01 163.16 C 259.25 160.10 255.99 157.66 253.44 156.83 C 244.68 154.08 235.69 161.33 233.42 169.55 M 321.54 189.45 C 316.97 191.29 316.18 197.98 319.87 201.08 C 321.88 203.16 324.94 202.76 327.55 202.66 C 329.44 200.83 332.09 199.05 331.73 196.04 C 332.50 190.77 326.00 186.84 321.54 189.45 M 250.41 193.51 C 244.89 194.63 243.19 202.86 247.88 206.00 C 252.00 209.51 259.17 206.45 259.35 201.00 C 259.95 196.26 254.94 192.21 250.41 193.51 M 294.52 198.77 C 295.78 203.08 298.22 206.96 300.00 211.08 C 300.77 213.04 302.24 215.12 301.45 217.31 C 298.06 220.21 292.47 219.87 290.03 223.72 C 294.58 223.02 299.18 221.68 303.06 219.13 C 304.77 218.02 304.77 215.82 303.87 214.20 C 301.29 208.41 298.39 202.76 295.38 197.18 C 295.17 197.58 294.74 198.37 294.52 198.77 M 162.12 211.20 C 156.62 217.48 157.45 228.80 164.88 233.22 C 169.40 235.73 174.73 234.17 178.90 231.72 C 178.66 231.35 178.18 230.60 177.94 230.22 C 174.01 231.80 169.12 233.68 165.32 230.80 C 158.14 225.74 159.48 212.73 168.06 209.94 C 171.77 208.30 175.04 212.26 178.73 211.29 C 174.83 206.20 166.10 206.24 162.12 211.20 M 267.12 236.60 C 269.85 241.47 275.47 244.29 280.97 244.18 C 282.57 244.08 284.42 243.91 285.26 242.32 C 279.41 242.54 272.98 241.53 268.98 236.82 C 268.52 236.76 267.58 236.65 267.12 236.60 Z" fill="#ffd3ba" opacity="1.00" stroke="#ffd3ba" stroke-width="0.25"/>
<path d="M 317.83 153.03 C 324.61 148.44 335.68 153.17 336.42 161.47 C 331.67 160.35 326.90 158.57 321.93 159.26 C 319.53 159.17 316.78 160.58 314.64 159.03 C 313.63 156.50 315.92 154.35 317.83 153.03 Z" fill="#344045" opacity="1.00" stroke="#344045" stroke-width="0.25"/>
<path d="M 233.42 169.55 C 235.69 161.33 244.68 154.08 253.44 156.83 C 255.99 157.66 259.25 160.10 258.01 163.16 C 255.28 164.71 252.00 163.87 249.03 164.32 C 243.44 164.75 238.60 167.75 233.42 169.55 Z" fill="#354248" opacity="1.00" stroke="#354248" stroke-width="0.25"/>
<path d="M 321.54 189.45 C 326.00 186.84 332.50 190.77 331.73 196.04 C 332.09 199.05 329.44 200.83 327.55 202.66 C 324.94 202.76 321.88 203.16 319.87 201.08 C 316.18 197.98 316.97 191.29 321.54 189.45 Z" fill="#344149" opacity="1.00" stroke="#344149" stroke-width="0.25"/>
<path d="M 250.41 193.51 C 254.94 192.21 259.95 196.26 259.35 201.00 C 259.17 206.45 252.00 209.51 247.88 206.00 C 243.19 202.86 244.89 194.63 250.41 193.51 Z" fill="#344148" opacity="1.00" stroke="#344148" stroke-width="0.25"/>
<path d="M 294.52 198.77 C 294.74 198.37 295.17 197.58 295.38 197.18 C 298.39 202.76 301.29 208.41 303.87 214.20 C 304.77 215.82 304.77 218.02 303.06 219.13 C 299.18 221.68 294.58 223.02 290.03 223.72 C 292.47 219.87 298.06 220.21 301.45 217.31 C 302.24 215.12 300.77 213.04 300.00 211.08 C 298.22 206.96 295.78 203.08 294.52 198.77 Z" fill="#303b3f" opacity="1.00" stroke="#303b3f" stroke-width="0.25"/>
<path d="M 162.12 211.20 C 166.10 206.24 174.83 206.20 178.73 211.29 C 175.04 212.26 171.77 208.30 168.06 209.94 C 159.48 212.73 158.14 225.74 165.32 230.80 C 169.12 233.68 174.01 231.80 177.94 230.22 C 178.18 230.60 178.66 231.35 178.90 231.72 C 174.73 234.17 169.40 235.73 164.88 233.22 C 157.45 228.80 156.62 217.48 162.12 211.20 Z" fill="#e4af94" opacity="1.00" stroke="#e4af94" stroke-width="0.25"/>
<path d="M 267.12 236.60 C 267.58 236.65 268.52 236.76 268.98 236.82 C 272.98 241.53 279.41 242.54 285.26 242.32 C 284.42 243.91 282.57 244.08 280.97 244.18 C 275.47 244.29 269.85 241.47 267.12 236.60 Z" fill="#303b3f" opacity="1.00" stroke="#303b3f" stroke-width="0.25"/>
<path d="M 177.63 244.71 C 179.18 244.00 180.69 243.20 182.21 242.39 C 184.66 248.02 187.95 253.21 191.64 258.10 C 186.53 254.13 182.24 249.22 177.63 244.71 Z" fill="#303b3f" opacity="1.00" stroke="#303b3f" stroke-width="0.25"/>
<path d="M 246.80 287.25 C 260.66 288.35 274.66 289.33 288.50 287.36 C 288.79 288.83 289.08 290.31 289.38 291.79 C 293.40 292.46 297.59 292.57 301.36 294.29 C 297.30 293.95 293.25 293.45 289.21 292.84 C 288.99 295.05 288.81 297.26 288.51 299.46 C 283.11 297.23 277.19 297.09 271.61 295.53 C 263.17 293.31 254.87 290.55 246.80 287.25 Z" fill="#e6a889" opacity="1.00" stroke="#e6a889" stroke-width="0.25"/>
<path d="M 219.35 291.30 C 220.89 291.09 222.43 290.91 223.98 290.72 C 225.25 296.51 226.81 302.48 230.66 307.16 C 239.46 318.63 255.56 322.72 269.23 319.13 C 278.45 316.48 286.38 308.97 288.51 299.46 C 288.81 297.26 288.99 295.05 289.21 292.84 C 293.25 293.45 297.30 293.95 301.36 294.29 C 314.17 296.38 326.39 303.17 334.18 313.68 C 338.62 319.97 342.47 326.66 346.57 333.19 C 346.57 333.75 346.59 334.89 346.60 335.46 C 345.53 336.24 344.45 337.02 343.43 337.86 C 334.46 345.79 324.73 352.85 315.82 360.84 C 314.66 367.48 315.42 374.47 315.04 381.24 C 305.93 382.59 296.70 382.56 287.54 383.38 C 267.04 384.07 246.50 384.60 225.99 383.83 C 218.02 383.46 209.87 384.21 202.12 381.91 C 201.80 378.91 201.55 375.91 200.94 372.96 C 195.82 368.08 189.87 364.16 184.61 359.43 C 179.37 354.55 173.46 350.48 168.26 345.56 C 167.81 345.17 166.90 344.39 166.45 344.01 C 172.05 333.27 177.44 322.38 183.98 312.17 C 191.81 300.22 205.58 293.54 219.35 291.30 M 207.53 354.68 C 206.43 360.87 204.30 366.94 204.26 373.28 C 206.47 370.82 206.64 367.36 207.67 364.36 C 210.07 364.69 212.51 364.75 214.91 364.37 C 221.92 363.33 228.95 362.52 235.97 361.62 C 261.23 359.63 286.75 359.23 311.94 362.30 C 311.68 357.32 311.52 352.33 311.53 347.34 C 300.67 347.03 289.82 347.64 278.96 347.74 C 270.32 347.61 261.69 348.76 253.05 347.92 C 240.03 347.67 226.99 347.63 214.01 346.81 C 211.47 350.77 210.63 355.52 209.02 359.89 C 209.59 355.85 209.71 351.74 210.72 347.77 C 210.91 346.05 211.79 344.23 211.10 342.54 C 208.69 346.12 208.56 350.61 207.53 354.68 Z" fill="#fd7c61" opacity="1.00" stroke="#fd7c61" stroke-width="0.25"/>
<path d="M 315.82 360.84 C 324.73 352.85 334.46 345.79 343.43 337.86 C 343.42 339.55 343.38 341.30 344.07 342.89 C 347.16 350.87 350.98 358.58 353.26 366.86 C 357.58 379.17 361.99 391.44 366.02 403.84 C 368.75 414.94 371.76 425.98 374.32 437.13 C 376.35 448.28 378.37 459.52 378.72 470.88 C 366.39 471.05 354.01 471.16 341.69 470.51 C 338.26 445.47 332.43 420.76 324.19 396.86 C 321.24 389.71 319.47 382.15 316.42 375.05 C 314.95 384.41 316.14 393.89 315.71 403.30 C 315.02 395.97 315.16 388.60 315.04 381.24 C 315.42 374.47 314.66 367.48 315.82 360.84 Z" fill="#ffd3ba" opacity="1.00" stroke="#ffd3ba" stroke-width="0.25"/>
<path d="M 207.53 354.68 C 208.56 350.61 208.69 346.12 211.10 342.54 C 211.79 344.23 210.91 346.05 210.72 347.77 C 209.71 351.74 209.59 355.85 209.02 359.89 C 208.59 361.38 208.12 362.86 207.67 364.36 C 206.64 367.36 206.47 370.82 204.26 373.28 C 204.30 366.94 206.43 360.87 207.53 354.68 Z" fill="#c5604b" opacity="1.00" stroke="#c5604b" stroke-width="0.25"/>
<path d="M 168.26 345.56 C 173.46 350.48 179.37 354.55 184.61 359.43 C 189.87 364.16 195.82 368.08 200.94 372.96 C 200.90 373.60 200.80 374.87 200.76 375.51 C 197.30 378.27 197.27 383.11 195.56 386.90 C 185.50 414.25 177.04 442.17 170.21 470.50 C 158.74 471.32 147.24 470.70 135.76 470.88 C 135.79 469.23 135.79 467.58 136.00 465.95 C 139.68 443.90 145.18 422.18 151.94 400.89 C 156.99 383.29 164.16 366.45 170.09 349.16 C 169.48 347.95 168.87 346.75 168.26 345.56 Z" fill="#ffd2b9" opacity="1.00" stroke="#ffd2b9" stroke-width="0.25"/>
<path d="M 209.02 359.89 C 210.63 355.52 211.47 350.77 214.01 346.81 C 226.99 347.63 240.03 347.67 253.05 347.92 C 261.69 348.76 270.32 347.61 278.96 347.74 C 289.82 347.64 300.67 347.03 311.53 347.34 C 311.52 352.33 311.68 357.32 311.94 362.30 C 286.75 359.23 261.23 359.63 235.97 361.62 C 228.95 362.52 221.92 363.33 214.91 364.37 C 212.51 364.75 210.07 364.69 207.67 364.36 C 208.12 362.86 208.59 361.38 209.02 359.89 Z" fill="#ffab9c" opacity="1.00" stroke="#ffab9c" stroke-width="0.25"/>
<path d="M 200.94 372.96 C 201.55 375.91 201.80 378.91 202.12 381.91 C 209.87 384.21 218.02 383.46 225.99 383.83 C 246.50 384.60 267.04 384.07 287.54 383.38 C 296.70 382.56 305.93 382.59 315.04 381.24 C 315.16 388.60 315.02 395.97 315.71 403.30 C 315.75 403.91 315.83 405.13 315.88 405.74 C 300.33 403.52 284.63 402.55 268.97 401.61 C 262.58 401.60 256.20 401.31 249.84 400.67 C 233.72 400.30 217.58 400.51 201.46 400.23 C 201.71 391.96 201.18 383.73 200.76 375.51 C 200.80 374.87 200.90 373.60 200.94 372.96 Z" fill="#ffac9c" opacity="1.00" stroke="#ffac9c" stroke-width="0.25"/>
<path d="M 201.46 400.23 C 217.58 400.51 233.72 400.30 249.84 400.67 C 256.20 401.31 262.58 401.60 268.97 401.61 C 284.63 402.55 300.33 403.52 315.88 405.74 C 315.89 407.07 315.90 408.40 315.91 409.75 C 315.91 413.35 315.80 416.96 315.64 420.56 C 310.06 420.47 304.54 421.30 299.00 421.79 C 266.14 424.43 233.17 426.43 200.19 425.70 C 200.04 423.75 199.89 421.80 199.83 419.85 C 200.51 413.32 200.98 406.77 201.46 400.23 Z" fill="#fe7d62" opacity="1.00" stroke="#fe7d62" stroke-width="0.25"/>
<path d="M 315.91 409.75 C 317.30 416.59 316.07 423.62 317.16 430.50 C 317.40 439.24 319.06 447.94 318.65 456.67 C 317.02 451.20 317.89 445.40 317.07 439.81 C 302.38 439.62 287.70 440.83 273.01 441.11 C 247.62 440.72 222.18 440.10 196.81 441.63 C 198.30 434.44 198.56 427.07 199.83 419.85 C 199.89 421.80 200.04 423.75 200.19 425.70 C 233.17 426.43 266.14 424.43 299.00 421.79 C 304.54 421.30 310.06 420.47 315.64 420.56 C 315.80 416.96 315.91 413.35 315.91 409.75 Z" fill="#feac9c" opacity="1.00" stroke="#feac9c" stroke-width="0.25"/>
<path d="M 273.01 441.11 C 287.70 440.83 302.38 439.62 317.07 439.81 C 317.89 445.40 317.02 451.20 318.65 456.67 C 319.87 461.27 319.49 466.11 319.93 470.82 C 277.10 470.74 234.26 470.92 191.43 470.73 C 193.03 461.00 195.44 451.41 196.81 441.63 C 222.18 440.10 247.62 440.72 273.01 441.11 Z" fill="#fd7d62" opacity="1.00" stroke="#fd7d62" stroke-width="0.25"/>
</svg>